<?xml version="1.0" encoding="UTF-8" standalone="no"?>
<!DOCTYPE svg PUBLIC "-//W3C//DTD SVG 1.1//EN" "http://www.w3.org/Graphics/SVG/1.1/DTD/svg11.dtd">
<svg xmlns="http://www.w3.org/2000/svg" version="1.1" viewBox="0.00 0.00 696.00 640.00">
<rect fill="#ffffff" x="161.76" y="62.50" width="389.24" height="15.02" rx="0.32"/>
<path fill="#ffffff" d="
  M 356.11 559.99
  L 161.93 414.66
  A 0.45 0.45 0.0 0 1 161.75 414.30
  L 161.75 88.45
  A 0.45 0.45 0.0 0 1 162.20 88.00
  L 550.55 88.00
  A 0.45 0.45 0.0 0 1 551.00 88.45
  L 551.00 414.30
  A 0.45 0.45 0.0 0 1 550.82 414.66
  L 356.65 559.99
  A 0.45 0.45 0.0 0 1 356.11 559.99
  Z
  M 371.60 131.63
  C 370.89 127.58 368.96 120.54 365.91 116.44
  Q 365.39 115.75 365.34 116.61
  C 364.94 123.95 364.77 128.61 360.89 136.21
  Q 359.34 139.26 355.56 146.77
  C 347.75 162.32 348.43 178.49 356.73 193.48
  Q 357.36 194.62 358.13 193.58
  C 371.25 175.98 375.35 152.96 371.60 131.63
  Z
  M 329.72 168.82
  C 328.68 171.45 326.83 178.17 327.23 180.51
  Q 327.75 183.49 328.31 186.46
  C 330.38 197.30 340.38 203.38 350.24 205.99
  A 0.53 0.51 -56.6 0 0 350.73 205.88
  Q 351.09 205.57 350.87 205.12
  Q 344.22 191.39 344.18 176.25
  Q 344.18 176.21 344.78 168.28
  C 345.52 158.30 342.29 145.23 332.46 140.32
  Q 332.00 140.09 332.11 140.59
  Q 335.11 155.18 329.72 168.82
  Z
  M 377.65 176.08
  Q 374.95 188.56 366.71 198.23
  Q 364.47 200.85 362.37 203.35
  Q 361.75 204.10 362.71 204.01
  Q 365.06 203.79 367.61 202.62
  C 381.00 196.48 384.52 181.04 379.80 168.06
  Q 379.59 167.48 379.45 168.08
  Q 378.50 172.13 377.65 176.08
  Z
  M 360.21 220.11
  C 366.35 220.32 372.19 220.41 378.11 218.11
  C 399.49 209.79 421.77 208.80 443.96 215.67
  C 448.56 217.09 452.70 219.46 457.52 219.94
  Q 464.67 220.65 471.63 219.75
  Q 472.22 219.68 471.72 219.36
  C 457.09 210.31 439.14 205.53 422.00 204.93
  Q 407.16 204.41 401.75 205.06
  C 386.53 206.88 372.65 210.44 359.19 217.95
  C 357.61 218.83 355.45 218.94 354.01 218.16
  Q 332.88 206.62 305.87 204.90
  C 283.50 203.48 259.99 207.55 240.62 219.28
  Q 239.95 219.68 240.72 219.75
  C 247.87 220.44 255.41 220.63 262.27 217.94
  C 285.99 208.65 310.64 209.03 334.37 218.00
  C 340.49 220.31 345.33 220.51 351.55 220.22
  Q 356.37 219.99 360.21 220.11
  Z
  M 472.03 225.69
  A 0.68 0.68 0.0 0 0 471.35 225.01
  L 240.67 225.01
  A 0.68 0.68 0.0 0 0 239.99 225.69
  L 239.99 232.31
  A 0.68 0.68 0.0 0 0 240.67 232.99
  L 471.35 232.99
  A 0.68 0.68 0.0 0 0 472.03 232.31
  L 472.03 225.69
  Z
  M 414.02 393.39
  Q 412.87 393.68 413.89 394.28
  C 416.69 395.91 426.49 394.90 430.04 394.70
  C 432.14 394.58 435.26 393.81 437.88 394.15
  C 441.37 394.60 449.91 395.82 452.37 394.40
  Q 454.04 393.43 452.18 393.18
  C 448.20 392.64 441.98 392.03 442.88 386.25
  C 443.21 384.19 443.58 381.95 444.27 379.94
  Q 449.85 363.69 455.70 348.22
  A 3.24 3.23 10.3 0 1 458.73 346.13
  L 493.73 346.08
  A 3.65 3.64 78.8 0 1 497.10 348.34
  Q 505.04 367.53 512.89 387.21
  Q 514.41 391.02 511.82 392.71
  Q 509.99 393.90 512.18 394.00
  C 513.93 394.07 515.51 394.65 517.29 394.70
  Q 530.39 395.09 543.50 394.84
  Q 545.18 394.81 546.08 394.52
  Q 548.65 393.71 546.03 393.14
  C 541.04 392.05 535.28 391.75 531.64 387.57
  Q 526.40 381.54 522.68 372.54
  Q 501.91 322.34 481.48 271.99
  Q 480.59 269.81 479.01 268.44
  A 0.74 0.74 0.0 0 0 478.04 268.45
  Q 476.82 269.57 476.05 271.51
  Q 455.24 324.62 434.66 377.82
  C 432.74 382.79 429.86 388.08 425.29 390.67
  C 422.34 392.33 417.82 392.42 414.02 393.39
  Z
  M 358.91 278.82
  Q 359.22 351.48 358.96 374.50
  Q 358.93 377.14 357.84 384.97
  C 357.66 386.31 356.96 387.53 356.66 388.93
  C 355.95 392.25 349.08 392.32 346.22 393.56
  Q 345.54 393.86 346.21 394.18
  C 350.10 396.03 359.24 394.84 363.56 394.30
  Q 366.36 393.95 370.26 394.55
  Q 374.66 395.22 389.24 394.95
  Q 390.37 394.93 390.71 393.82
  Q 390.87 393.31 390.35 393.19
  Q 386.71 392.33 382.98 392.00
  Q 379.60 391.70 378.21 390.80
  C 374.24 388.23 374.01 380.33 373.97 376.12
  Q 373.54 327.19 373.79 278.29
  A 0.31 0.31 0.0 0 1 374.10 277.98
  Q 385.97 278.13 397.90 278.17
  C 402.29 278.19 410.85 278.90 414.17 281.58
  C 417.59 284.35 416.99 287.97 418.38 291.64
  A 0.44 0.43 -29.9 0 0 419.06 291.82
  Q 419.98 291.08 419.99 289.75
  Q 420.01 284.68 420.15 279.61
  C 420.23 276.93 421.49 273.80 420.04 270.35
  Q 419.83 269.87 419.31 269.90
  C 415.85 270.05 412.49 270.96 409.22 270.96
  Q 353.17 271.06 328.75 270.89
  Q 322.50 270.84 315.80 268.66
  Q 315.33 268.50 315.03 268.89
  C 313.38 271.01 308.91 285.36 310.39 289.80
  A 0.56 0.56 0.0 0 0 311.42 289.88
  C 315.72 281.70 318.15 278.34 328.25 278.16
  Q 343.30 277.88 358.36 278.25
  Q 358.91 278.27 358.91 278.82
  Z
  M 296.64 271.01
  L 258.75 271.00
  Q 257.34 271.00 258.17 272.20
  Q 258.22 272.27 259.26 272.45
  C 263.44 273.18 269.34 273.23 271.69 277.10
  C 273.66 280.33 273.08 286.56 273.11 290.75
  Q 273.29 318.63 273.14 346.50
  C 273.06 361.06 269.12 376.86 257.02 384.62
  C 245.06 392.29 228.58 393.35 216.15 386.73
  Q 204.81 380.69 199.97 367.42
  Q 197.24 359.96 196.99 355.25
  C 196.82 352.09 196.08 349.01 196.06 346.40
  Q 195.88 315.82 196.11 285.24
  Q 196.11 284.84 196.27 284.29
  C 197.09 281.41 196.44 277.53 198.83 275.41
  C 201.11 273.39 205.32 273.04 208.22 272.47
  Q 209.21 272.27 209.17 272.03
  A 1.18 1.16 -3.3 0 0 208.00 271.00
  L 166.88 270.98
  Q 165.96 270.98 165.94 271.90
  L 165.93 272.27
  A 0.58 0.57 -90.0 0 0 166.51 272.86
  Q 172.89 272.75 177.41 275.14
  C 180.52 276.79 180.99 283.03 180.99 286.11
  Q 181.00 316.79 181.00 347.47
  Q 181.00 349.49 181.47 352.47
  C 182.26 357.47 182.64 362.12 184.36 367.23
  C 188.95 380.96 198.84 390.61 212.99 394.62
  C 240.15 402.32 273.33 394.34 281.31 363.69
  Q 283.95 353.52 284.03 341.50
  Q 284.17 317.60 284.09 293.69
  C 284.08 291.27 284.96 288.59 284.94 286.00
  C 284.90 276.62 285.52 273.48 296.43 272.61
  A 0.80 0.79 -15.1 0 0 297.09 271.47
  L 296.96 271.21
  A 0.36 0.34 -11.5 0 0 296.64 271.01
  Z"
/>
<path fill="#ffffff" d="
  M 492.39 335.91
  Q 493.10 337.79 493.25 339.50
  A 1.29 1.29 0.0 0 1 491.96 340.90
  L 460.75 340.85
  Q 458.46 340.85 459.20 338.68
  Q 466.26 318.02 473.97 296.24
  Q 474.59 294.48 475.07 294.00
  Q 476.15 292.91 476.69 294.34
  Q 484.64 315.26 492.39 335.91
  Z"
/>
</svg>
