<?xml version="1.0" encoding="UTF-8" standalone="no"?>
<!DOCTYPE svg PUBLIC "-//W3C//DTD SVG 1.1//EN" "http://www.w3.org/Graphics/SVG/1.1/DTD/svg11.dtd">
<svg xmlns="http://www.w3.org/2000/svg" version="1.1" viewBox="0.00 0.00 561.00 237.00">
<g stroke-width="2.00" fill="none" stroke-linecap="butt">
<path stroke="#b8908d" vector-effect="non-scaling-stroke" d="
  M 282.40 42.44
  A 1.27 1.27 0.0 0 1 282.77 44.59
  C 275.53 50.78 267.76 54.64 258.16 55.00
  A 0.86 0.86 0.0 0 0 257.36 56.05
  C 258.10 59.35 259.21 63.36 262.00 65.21
  C 269.06 69.89 280.49 56.90 283.53 51.25
  C 286.96 44.87 289.01 32.63 279.25 30.45
  C 266.31 27.55 250.80 36.41 241.19 45.17
  C 224.40 60.51 246.71 73.90 256.44 82.19
  C 263.43 88.15 269.39 92.89 263.23 101.72
  C 256.97 110.70 244.69 118.44 233.30 119.27
  C 227.90 119.67 216.22 118.00 214.52 111.75
  C 213.68 108.68 215.31 108.09 217.80 106.27
  C 225.36 100.78 236.20 97.29 244.96 102.24
  Q 246.51 103.12 247.23 101.49
  C 252.31 89.89 244.99 84.40 233.99 87.14
  Q 222.72 89.95 215.43 98.93
  C 210.04 105.59 208.95 112.93 215.95 119.06
  C 226.35 128.17 243.02 126.30 254.33 120.25
  C 265.39 114.32 280.80 98.67 272.99 85.25
  C 270.33 80.67 264.42 76.35 259.76 73.51
  C 254.16 70.10 235.08 60.26 239.01 54.57
  Q 240.55 52.34 241.80 51.52
  Q 256.68 41.70 274.45 40.74
  C 277.24 40.59 279.89 41.49 282.40 42.44"
/>
<path stroke="#9e9e9e" vector-effect="non-scaling-stroke" d="
  M 146.65 99.23
  Q 148.94 97.64 147.63 100.09
  L 138.51 117.13
  A 0.46 0.46 0.0 0 1 137.92 117.33
  Q 131.89 114.68 125.26 113.69
  C 119.09 112.76 108.17 114.45 108.84 123.01
  Q 109.22 127.95 114.54 128.84
  Q 127.22 130.95 138.06 124.41
  C 138.94 123.87 140.46 123.55 141.26 124.01
  Q 149.45 128.80 158.51 131.45
  C 167.43 134.06 170.87 127.50 170.22 119.81
  Q 170.14 118.86 169.45 119.52
  L 168.85 120.09
  Q 168.47 120.45 167.99 120.65
  C 160.42 123.80 153.00 121.77 145.71 120.13
  Q 145.02 119.98 145.47 119.44
  Q 150.53 113.49 154.57 106.76
  C 165.74 88.16 176.27 69.03 188.85 51.32
  Q 193.24 45.14 198.59 40.19
  Q 199.04 39.77 198.48 39.52
  C 191.85 36.71 183.85 35.50 179.16 42.71
  Q 174.81 49.39 166.27 65.42
  Q 160.37 76.48 158.27 79.50
  C 149.75 91.75 138.22 102.12 124.07 105.69
  A 0.55 0.55 0.0 0 1 123.41 104.98
  C 125.44 99.11 127.83 93.57 131.05 87.95
  Q 145.00 63.54 161.92 41.58
  A 1.41 1.41 0.0 0 0 161.30 39.40
  C 144.52 33.12 120.50 37.60 107.82 50.57
  C 101.64 56.88 105.49 63.52 111.10 68.12
  A 0.92 0.92 0.0 0 0 112.53 67.79
  Q 122.03 46.64 145.06 42.26
  A 0.55 0.55 0.0 0 1 145.62 43.10
  C 137.40 55.86 113.92 93.30 118.79 106.73
  Q 119.97 109.97 123.28 109.43
  C 131.98 108.01 139.48 104.19 146.65 99.23"
/>
<path stroke="#b8908d" vector-effect="non-scaling-stroke" d="
  M 77.46 86.96
  L 84.89 75.48
  A 2.58 2.57 -74.4 0 1 86.95 74.31
  C 92.02 74.13 98.40 74.21 103.15 72.70
  Q 103.69 72.53 103.85 71.99
  Q 104.65 69.44 104.55 66.78
  A 1.12 1.12 0.0 0 0 102.84 65.87
  C 99.89 67.73 94.25 67.78 90.77 67.77
  A 0.67 0.67 0.0 0 1 90.22 66.72
  Q 95.22 59.40 99.01 51.14
  C 100.69 47.48 100.85 44.50 96.93 42.57
  Q 95.72 41.98 95.25 43.24
  C 92.04 51.87 87.19 59.69 82.72 67.59
  A 1.47 1.46 -74.7 0 1 81.43 68.33
  L 69.55 68.29
  Q 68.90 68.29 69.22 67.73
  C 72.79 61.41 76.76 55.44 79.40 48.52
  Q 80.58 45.43 77.86 43.56
  L 77.22 43.12
  Q 74.87 41.50 74.07 44.24
  C 71.82 51.96 66.31 60.26 62.12 67.35
  A 1.50 1.50 0.0 0 1 60.80 68.08
  L 44.47 67.71
  Q 41.58 67.64 40.70 70.39
  L 40.51 70.98
  Q 39.81 73.17 42.11 73.23
  L 57.47 73.65
  A 0.49 0.49 0.0 0 1 57.88 74.40
  L 50.36 86.35
  Q 49.45 87.79 47.75 87.67
  L 37.42 86.94
  A 4.93 4.92 20.1 0 0 33.08 88.95
  L 32.11 90.27
  Q 30.55 92.39 33.19 92.45
  L 45.86 92.72
  A 0.45 0.44 19.9 0 1 46.20 93.44
  C 41.01 99.93 36.85 107.29 32.28 114.22
  C 30.47 116.96 29.53 120.98 32.45 122.97
  A 0.72 0.72 0.0 0 0 33.50 122.70
  Q 34.97 119.89 36.62 117.35
  Q 44.17 105.76 52.18 93.87
  A 1.66 1.64 18.8 0 1 53.67 93.15
  L 65.00 93.98
  A 0.70 0.70 0.0 0 1 65.53 95.06
  L 52.58 114.51
  A 6.55 6.50 56.4 0 0 51.62 119.38
  L 52.10 121.76
  Q 52.61 124.29 54.04 122.14
  L 72.20 94.73
  Q 72.60 94.12 73.33 94.14
  Q 83.21 94.38 93.02 92.61
  C 96.44 92.00 96.43 88.83 96.52 86.16
  A 0.93 0.93 0.0 0 0 95.19 85.29
  Q 93.43 86.12 91.26 86.39
  Q 84.55 87.21 77.79 87.52
  Q 77.07 87.56 77.46 86.96"
/>
<path stroke="#9e9e9e" vector-effect="non-scaling-stroke" d="
  M 205.19 96.78
  C 207.45 91.55 211.26 82.52 207.18 77.47
  A 2.08 2.07 64.8 0 0 205.17 76.74
  C 197.02 78.29 190.03 85.18 189.32 93.46
  C 188.99 97.38 190.69 98.94 193.75 100.91
  A 0.43 0.42 -59.6 0 1 193.89 101.47
  C 190.65 107.44 185.90 112.40 178.94 113.94
  Q 177.93 114.17 177.51 113.22
  C 170.80 97.90 185.61 78.19 200.55 76.39
  Q 205.31 75.82 202.47 71.96
  L 201.04 70.01
  A 6.23 6.22 -28.9 0 0 193.74 67.91
  C 178.92 73.76 170.50 86.93 170.80 102.47
  Q 170.88 106.54 172.00 109.37
  C 172.97 111.87 175.42 116.84 178.75 116.71
  C 188.44 116.32 197.01 109.75 202.15 102.16
  C 203.13 100.73 206.99 100.02 208.51 99.22
  Q 223.44 91.37 231.96 76.31
  Q 232.40 75.54 231.73 74.96
  L 231.51 74.77
  A 0.61 0.61 0.0 0 0 230.59 74.91
  C 225.37 83.47 215.73 93.91 205.62 97.25
  Q 204.88 97.50 205.19 96.78"
/>
<path stroke="#b8908d" vector-effect="non-scaling-stroke" d="
  M 326.89 95.58
  C 325.24 99.47 323.09 103.85 322.47 107.98
  C 319.75 126.13 338.25 111.02 342.23 106.54
  Q 343.31 105.32 342.81 106.87
  C 341.05 112.28 333.84 139.19 326.83 140.70
  C 320.17 142.13 320.62 126.28 325.41 123.23
  Q 327.65 121.80 325.02 121.40
  C 305.17 118.37 313.27 139.34 323.28 143.09
  C 337.13 148.28 344.25 127.06 346.92 117.87
  C 349.14 110.21 350.98 104.80 354.30 99.04
  Q 362.21 85.30 373.54 73.00
  Q 376.65 69.62 372.09 69.14
  L 369.19 68.84
  Q 364.62 68.36 361.92 72.07
  Q 354.97 81.60 349.50 92.11
  Q 346.47 97.95 344.01 100.73
  Q 337.75 107.84 329.07 112.11
  Q 327.11 113.07 327.56 110.94
  Q 328.22 107.81 330.30 104.06
  Q 339.70 87.11 353.00 72.43
  Q 355.26 69.93 351.93 69.43
  L 347.72 68.80
  A 6.22 6.20 -65.1 0 0 342.16 70.84
  C 337.00 76.71 334.06 84.54 328.27 89.67
  Q 323.16 94.19 316.67 97.18
  Q 314.52 98.18 315.71 96.13
  C 318.36 91.57 320.28 84.07 318.40 78.57
  Q 317.47 75.88 314.50 76.79
  Q 304.34 79.93 300.53 89.27
  C 298.79 93.53 298.71 97.74 303.07 100.15
  A 1.69 1.69 0.0 0 1 303.73 102.45
  C 300.72 107.87 295.55 112.79 289.32 113.87
  A 1.57 1.57 0.0 0 1 287.60 112.90
  C 282.15 98.98 292.81 84.17 304.56 78.10
  C 306.81 76.94 309.42 76.63 311.90 76.12
  A 1.97 1.96 80.0 0 0 313.45 73.90
  C 312.62 68.48 307.56 66.16 302.74 68.26
  Q 289.20 74.18 283.86 88.29
  Q 281.04 95.74 280.75 99.99
  C 280.41 104.91 283.33 117.68 290.51 116.75
  C 300.23 115.50 307.31 109.50 313.07 101.69
  Q 313.39 101.26 313.90 101.11
  Q 320.52 99.11 325.99 94.88
  Q 327.78 93.50 326.89 95.58"
/>
<path stroke="#9e9e9e" vector-effect="non-scaling-stroke" d="
  M 215.09 160.32
  Q 214.77 161.15 214.20 160.47
  C 210.37 155.99 205.23 154.40 199.28 154.86
  Q 184.35 156.02 180.88 171.81
  C 177.73 186.14 180.66 204.46 196.94 208.44
  C 203.55 210.05 209.50 208.78 214.27 204.01
  Q 215.44 202.85 215.49 204.50
  L 215.56 206.92
  Q 215.57 207.51 216.17 207.51
  L 229.08 207.49
  A 0.57 0.56 90.0 0 0 229.64 206.92
  L 229.55 137.59
  A 0.22 0.21 -90.0 0 0 229.34 137.37
  L 215.93 137.44
  A 0.64 0.64 0.0 0 0 215.29 138.08
  Q 215.33 148.81 215.13 159.75
  Q 215.12 160.24 215.09 160.32"
/>
<path stroke="#9e9e9e" vector-effect="non-scaling-stroke" d="
  M 299.54 137.97
  A 0.55 0.55 0.0 0 0 298.99 137.42
  L 286.07 137.42
  A 0.55 0.55 0.0 0 0 285.52 137.97
  L 285.52 206.95
  A 0.55 0.55 0.0 0 0 286.07 207.50
  L 298.99 207.50
  A 0.55 0.55 0.0 0 0 299.54 206.95
  L 299.54 137.97"
/>
<path stroke="#b8908d" vector-effect="non-scaling-stroke" d="
  M 356.06 197.83
  C 359.72 205.25 367.63 208.90 375.51 209.65
  C 393.11 211.31 409.23 205.99 409.39 185.25
  Q 409.58 162.04 409.35 138.93
  A 0.74 0.73 0.0 0 0 408.62 138.21
  L 394.68 138.18
  A 0.69 0.68 0.0 0 0 393.99 138.86
  Q 393.99 161.14 393.82 183.50
  Q 393.77 188.91 393.22 190.23
  C 389.33 199.63 374.61 199.95 370.47 191.21
  Q 368.99 188.11 368.97 181.07
  Q 368.90 161.09 368.91 139.45
  Q 368.91 138.14 367.60 138.14
  L 354.41 138.16
  Q 353.36 138.16 353.36 139.21
  Q 353.19 164.28 353.44 187.50
  Q 353.50 192.64 356.06 197.83"
/>
<path stroke="#b8908d" vector-effect="non-scaling-stroke" d="
  M 495.50 194.08
  L 499.26 207.04
  Q 499.39 207.49 499.86 207.49
  L 515.48 207.52
  A 0.49 0.49 0.0 0 0 515.94 206.87
  Q 504.68 175.17 493.39 143.31
  Q 492.62 141.14 492.39 139.25
  A 1.13 1.12 86.5 0 0 491.28 138.26
  L 475.19 138.13
  A 1.00 0.98 9.4 0 0 474.25 138.79
  L 450.11 206.40
  A 0.89 0.89 0.0 0 0 450.96 207.59
  L 465.50 207.46
  A 0.68 0.68 0.0 0 0 466.15 206.98
  L 470.38 193.94
  A 0.64 0.64 0.0 0 1 470.99 193.49
  L 494.69 193.48
  A 0.85 0.84 -8.3 0 1 495.50 194.08"
/>
<path stroke="#b8908d" vector-effect="non-scaling-stroke" d="
  M 431.31 150.96
  A 0.68 0.68 0.0 0 1 431.99 151.64
  L 431.97 206.82
  A 0.68 0.68 0.0 0 0 432.65 207.50
  L 446.66 207.51
  A 0.68 0.68 0.0 0 0 447.34 206.83
  L 447.28 151.65
  A 0.68 0.68 0.0 0 1 447.96 150.97
  L 467.50 151.02
  A 0.68 0.68 0.0 0 0 468.18 150.34
  L 468.17 138.99
  A 0.68 0.68 0.0 0 0 467.49 138.31
  L 412.24 138.34
  A 0.68 0.68 0.0 0 0 411.56 139.00
  L 411.30 150.30
  A 0.68 0.68 0.0 0 0 411.98 151.00
  L 431.31 150.96"
/>
<path stroke="#9e9e9e" vector-effect="non-scaling-stroke" d="
  M 247.28 187.11
  A 1.23 1.22 -3.5 0 1 248.50 185.74
  L 281.50 185.74
  A 0.56 0.55 1.1 0 0 282.06 185.21
  C 282.73 172.68 278.62 158.24 264.43 155.42
  C 253.38 153.22 240.93 156.38 236.03 166.55
  C 230.51 178.00 231.66 198.96 243.90 205.60
  C 257.78 213.14 276.38 209.06 281.30 192.49
  A 0.56 0.56 0.0 0 0 280.75 191.77
  L 267.46 192.03
  A 1.38 1.37 -87.1 0 0 266.12 193.25
  Q 265.93 194.94 264.10 195.88
  C 256.11 200.00 248.39 196.05 247.28 187.11"
/>
<path stroke="#9e9e9e" vector-effect="non-scaling-stroke" d="
  M 335.35 204.24
  L 335.73 206.80
  A 0.83 0.82 -3.6 0 0 336.54 207.50
  L 348.46 207.54
  A 0.73 0.73 0.0 0 0 349.20 206.81
  Q 349.19 190.66 349.15 174.25
  C 349.14 168.69 347.68 162.70 343.38 159.07
  C 336.00 152.83 317.82 153.54 310.62 158.95
  Q 304.51 163.54 304.90 172.85
  Q 304.92 173.37 305.44 173.37
  L 316.81 173.28
  Q 318.11 173.27 318.27 171.98
  C 318.57 169.43 319.60 167.51 322.13 166.56
  C 326.62 164.87 337.00 165.24 334.14 173.23
  Q 333.96 173.72 333.52 173.99
  C 330.00 176.15 324.29 176.50 320.23 177.07
  C 308.40 178.74 301.76 184.14 303.04 197.02
  C 304.37 210.39 321.76 211.00 331.09 206.61
  C 332.44 205.97 333.51 204.92 334.76 204.00
  Q 335.26 203.64 335.35 204.24"
/>
<path stroke="#9e9e9e" vector-effect="non-scaling-stroke" d="
  M 113.82 125.19
  C 117.52 129.24 130.71 123.84 134.48 121.24
  A 0.42 0.41 41.3 0 0 134.43 120.53
  Q 126.75 116.51 118.26 117.05
  C 114.18 117.31 110.26 121.30 113.82 125.19"
/>
<path stroke="#b8908d" vector-effect="non-scaling-stroke" d="
  M 56.88 87.07
  A 0.73 0.73 0.0 0 0 57.51 88.19
  L 69.60 88.02
  A 0.73 0.73 0.0 0 0 70.21 87.67
  L 77.94 75.36
  A 0.73 0.73 0.0 0 0 77.33 74.24
  L 65.55 73.98
  A 0.73 0.73 0.0 0 0 64.92 74.32
  L 56.88 87.07"
/>
<path stroke="#9e9e9e" vector-effect="non-scaling-stroke" d="
  M 195.61 97.24
  L 198.35 86.25
  A 0.12 0.12 0.0 0 0 198.26 86.11
  L 198.24 86.10
  A 5.30 3.20 -76.0 0 0 193.86 90.47
  L 193.62 91.40
  A 5.30 3.20 -76.0 0 0 195.45 97.32
  L 195.47 97.32
  A 0.12 0.12 0.0 0 0 195.61 97.24"
/>
<path stroke="#b8908d" vector-effect="non-scaling-stroke" d="
  M 305.75 97.40
  L 308.84 86.28
  A 0.04 0.04 0.0 0 0 308.81 86.23
  L 308.75 86.21
  A 5.62 3.40 -74.5 0 0 303.97 90.72
  L 303.87 91.09
  A 5.62 3.40 -74.5 0 0 305.65 97.41
  L 305.71 97.43
  A 0.04 0.04 0.0 0 0 305.75 97.40"
/>
<path stroke="#9e9e9e" vector-effect="non-scaling-stroke" d="
  M 214.13 172.42
  C 212.48 168.23 208.15 166.60 204.03 167.00
  C 187.20 168.66 192.73 203.34 208.85 196.51
  C 217.24 192.95 217.00 179.70 214.13 172.42"
/>
<path stroke="#b8908d" vector-effect="non-scaling-stroke" d="
  M 474.79 180.49
  A 0.40 0.40 0.0 0 0 475.17 181.01
  L 490.31 181.06
  A 0.40 0.40 0.0 0 0 490.69 180.54
  L 483.21 156.46
  A 0.40 0.40 0.0 0 0 482.44 156.46
  L 474.79 180.49"
/>
<path stroke="#9e9e9e" vector-effect="non-scaling-stroke" d="
  M 248.26 176.72
  L 266.96 176.66
  A 0.45 0.45 0.0 0 0 267.41 176.21
  L 267.41 175.87
  A 9.77 9.75 89.8 0 0 257.62 166.13
  L 257.52 166.13
  A 9.77 9.75 89.8 0 0 247.81 175.93
  L 247.81 176.27
  A 0.45 0.45 0.0 0 0 248.26 176.72"
/>
<path stroke="#9e9e9e" vector-effect="non-scaling-stroke" d="
  M 320.68 187.66
  C 315.14 189.90 315.47 198.21 322.49 198.46
  C 332.04 198.80 334.69 192.68 335.13 184.52
  Q 335.16 184.09 334.73 184.15
  Q 326.34 185.38 320.68 187.66"
/>
</g>
<path fill="#ffffff" d="
  M 0.00 0.00
  L 561.00 0.00
  L 561.00 237.00
  L 0.00 237.00
  L 0.00 0.00
  Z
  M 282.40 42.44
  A 1.27 1.27 0.0 0 1 282.77 44.59
  C 275.53 50.78 267.76 54.64 258.16 55.00
  A 0.86 0.86 0.0 0 0 257.36 56.05
  C 258.10 59.35 259.21 63.36 262.00 65.21
  C 269.06 69.89 280.49 56.90 283.53 51.25
  C 286.96 44.87 289.01 32.63 279.25 30.45
  C 266.31 27.55 250.80 36.41 241.19 45.17
  C 224.40 60.51 246.71 73.90 256.44 82.19
  C 263.43 88.15 269.39 92.89 263.23 101.72
  C 256.97 110.70 244.69 118.44 233.30 119.27
  C 227.90 119.67 216.22 118.00 214.52 111.75
  C 213.68 108.68 215.31 108.09 217.80 106.27
  C 225.36 100.78 236.20 97.29 244.96 102.24
  Q 246.51 103.12 247.23 101.49
  C 252.31 89.89 244.99 84.40 233.99 87.14
  Q 222.72 89.95 215.43 98.93
  C 210.04 105.59 208.95 112.93 215.95 119.06
  C 226.35 128.17 243.02 126.30 254.33 120.25
  C 265.39 114.32 280.80 98.67 272.99 85.25
  C 270.33 80.67 264.42 76.35 259.76 73.51
  C 254.16 70.10 235.08 60.26 239.01 54.57
  Q 240.55 52.34 241.80 51.52
  Q 256.68 41.70 274.45 40.74
  C 277.24 40.59 279.89 41.49 282.40 42.44
  Z
  M 146.65 99.23
  Q 148.94 97.64 147.63 100.09
  L 138.51 117.13
  A 0.46 0.46 0.0 0 1 137.92 117.33
  Q 131.89 114.68 125.26 113.69
  C 119.09 112.76 108.17 114.45 108.84 123.01
  Q 109.22 127.95 114.54 128.84
  Q 127.22 130.95 138.06 124.41
  C 138.94 123.87 140.46 123.55 141.26 124.01
  Q 149.45 128.80 158.51 131.45
  C 167.43 134.06 170.87 127.50 170.22 119.81
  Q 170.14 118.86 169.45 119.52
  L 168.85 120.09
  Q 168.47 120.45 167.99 120.65
  C 160.42 123.80 153.00 121.77 145.71 120.13
  Q 145.02 119.98 145.47 119.44
  Q 150.53 113.49 154.57 106.76
  C 165.74 88.16 176.27 69.03 188.85 51.32
  Q 193.24 45.14 198.59 40.19
  Q 199.04 39.77 198.48 39.52
  C 191.85 36.71 183.85 35.50 179.16 42.71
  Q 174.81 49.39 166.27 65.42
  Q 160.37 76.48 158.27 79.50
  C 149.75 91.75 138.22 102.12 124.07 105.69
  A 0.55 0.55 0.0 0 1 123.41 104.98
  C 125.44 99.11 127.83 93.57 131.05 87.95
  Q 145.00 63.54 161.92 41.58
  A 1.41 1.41 0.0 0 0 161.30 39.40
  C 144.52 33.12 120.50 37.60 107.82 50.57
  C 101.64 56.88 105.49 63.52 111.10 68.12
  A 0.92 0.92 0.0 0 0 112.53 67.79
  Q 122.03 46.64 145.06 42.26
  A 0.55 0.55 0.0 0 1 145.62 43.10
  C 137.40 55.86 113.92 93.30 118.79 106.73
  Q 119.97 109.97 123.28 109.43
  C 131.98 108.01 139.48 104.19 146.65 99.23
  Z
  M 77.46 86.96
  L 84.89 75.48
  A 2.58 2.57 -74.4 0 1 86.95 74.31
  C 92.02 74.13 98.40 74.21 103.15 72.70
  Q 103.69 72.53 103.85 71.99
  Q 104.65 69.44 104.55 66.78
  A 1.12 1.12 0.0 0 0 102.84 65.87
  C 99.89 67.73 94.25 67.78 90.77 67.77
  A 0.67 0.67 0.0 0 1 90.22 66.72
  Q 95.22 59.40 99.01 51.14
  C 100.69 47.48 100.85 44.50 96.93 42.57
  Q 95.72 41.98 95.25 43.24
  C 92.04 51.87 87.19 59.69 82.72 67.59
  A 1.47 1.46 -74.7 0 1 81.43 68.33
  L 69.55 68.29
  Q 68.90 68.29 69.22 67.73
  C 72.79 61.41 76.76 55.44 79.40 48.52
  Q 80.58 45.43 77.86 43.56
  L 77.22 43.12
  Q 74.87 41.50 74.07 44.24
  C 71.82 51.96 66.31 60.26 62.12 67.35
  A 1.50 1.50 0.0 0 1 60.80 68.08
  L 44.47 67.71
  Q 41.58 67.64 40.70 70.39
  L 40.51 70.98
  Q 39.81 73.17 42.11 73.23
  L 57.47 73.65
  A 0.49 0.49 0.0 0 1 57.88 74.40
  L 50.36 86.35
  Q 49.45 87.79 47.75 87.67
  L 37.42 86.94
  A 4.93 4.92 20.1 0 0 33.08 88.95
  L 32.11 90.27
  Q 30.55 92.39 33.19 92.45
  L 45.86 92.72
  A 0.45 0.44 19.9 0 1 46.20 93.44
  C 41.01 99.93 36.85 107.29 32.28 114.22
  C 30.47 116.96 29.53 120.98 32.45 122.97
  A 0.72 0.72 0.0 0 0 33.50 122.70
  Q 34.97 119.89 36.62 117.35
  Q 44.17 105.76 52.18 93.87
  A 1.66 1.64 18.8 0 1 53.67 93.15
  L 65.00 93.98
  A 0.70 0.70 0.0 0 1 65.53 95.06
  L 52.58 114.51
  A 6.55 6.50 56.4 0 0 51.62 119.38
  L 52.10 121.76
  Q 52.61 124.29 54.04 122.14
  L 72.20 94.73
  Q 72.60 94.12 73.33 94.14
  Q 83.21 94.38 93.02 92.61
  C 96.44 92.00 96.43 88.83 96.52 86.16
  A 0.93 0.93 0.0 0 0 95.19 85.29
  Q 93.43 86.12 91.26 86.39
  Q 84.55 87.21 77.79 87.52
  Q 77.07 87.56 77.46 86.96
  Z
  M 205.19 96.78
  C 207.45 91.55 211.26 82.52 207.18 77.47
  A 2.08 2.07 64.8 0 0 205.17 76.74
  C 197.02 78.29 190.03 85.18 189.32 93.46
  C 188.99 97.38 190.69 98.94 193.75 100.91
  A 0.43 0.42 -59.6 0 1 193.89 101.47
  C 190.65 107.44 185.90 112.40 178.94 113.94
  Q 177.93 114.17 177.51 113.22
  C 170.80 97.90 185.61 78.19 200.55 76.39
  Q 205.31 75.82 202.47 71.96
  L 201.04 70.01
  A 6.23 6.22 -28.9 0 0 193.74 67.91
  C 178.92 73.76 170.50 86.93 170.80 102.47
  Q 170.88 106.54 172.00 109.37
  C 172.97 111.87 175.42 116.84 178.75 116.71
  C 188.44 116.32 197.01 109.75 202.15 102.16
  C 203.13 100.73 206.99 100.02 208.51 99.22
  Q 223.44 91.37 231.96 76.31
  Q 232.40 75.54 231.73 74.96
  L 231.51 74.77
  A 0.61 0.61 0.0 0 0 230.59 74.91
  C 225.37 83.47 215.73 93.91 205.62 97.25
  Q 204.88 97.50 205.19 96.78
  Z
  M 326.89 95.58
  C 325.24 99.47 323.09 103.85 322.47 107.98
  C 319.75 126.13 338.25 111.02 342.23 106.54
  Q 343.31 105.32 342.81 106.87
  C 341.05 112.28 333.84 139.19 326.83 140.70
  C 320.17 142.13 320.62 126.28 325.41 123.23
  Q 327.65 121.80 325.02 121.40
  C 305.17 118.37 313.27 139.34 323.28 143.09
  C 337.13 148.28 344.25 127.06 346.92 117.87
  C 349.14 110.21 350.98 104.80 354.30 99.04
  Q 362.21 85.30 373.54 73.00
  Q 376.65 69.62 372.09 69.14
  L 369.19 68.84
  Q 364.62 68.36 361.92 72.07
  Q 354.97 81.60 349.50 92.11
  Q 346.47 97.95 344.01 100.73
  Q 337.75 107.84 329.07 112.11
  Q 327.11 113.07 327.56 110.94
  Q 328.22 107.81 330.30 104.06
  Q 339.70 87.11 353.00 72.43
  Q 355.26 69.93 351.93 69.43
  L 347.72 68.80
  A 6.22 6.20 -65.1 0 0 342.16 70.84
  C 337.00 76.71 334.06 84.54 328.27 89.67
  Q 323.16 94.19 316.67 97.18
  Q 314.52 98.18 315.71 96.13
  C 318.36 91.57 320.28 84.07 318.40 78.57
  Q 317.47 75.88 314.50 76.79
  Q 304.34 79.93 300.53 89.27
  C 298.79 93.53 298.71 97.74 303.07 100.15
  A 1.69 1.69 0.0 0 1 303.73 102.45
  C 300.72 107.87 295.55 112.79 289.32 113.87
  A 1.57 1.57 0.0 0 1 287.60 112.90
  C 282.15 98.98 292.81 84.17 304.56 78.10
  C 306.81 76.94 309.42 76.63 311.90 76.12
  A 1.97 1.96 80.0 0 0 313.45 73.90
  C 312.62 68.48 307.56 66.16 302.74 68.26
  Q 289.20 74.18 283.86 88.29
  Q 281.04 95.74 280.75 99.99
  C 280.41 104.91 283.33 117.68 290.51 116.75
  C 300.23 115.50 307.31 109.50 313.07 101.69
  Q 313.39 101.26 313.90 101.11
  Q 320.52 99.11 325.99 94.88
  Q 327.78 93.50 326.89 95.58
  Z
  M 215.09 160.32
  Q 214.77 161.15 214.20 160.47
  C 210.37 155.99 205.23 154.40 199.28 154.86
  Q 184.35 156.02 180.88 171.81
  C 177.73 186.14 180.66 204.46 196.94 208.44
  C 203.55 210.05 209.50 208.78 214.27 204.01
  Q 215.44 202.85 215.49 204.50
  L 215.56 206.92
  Q 215.57 207.51 216.17 207.51
  L 229.08 207.49
  A 0.57 0.56 90.0 0 0 229.64 206.92
  L 229.55 137.59
  A 0.22 0.21 -90.0 0 0 229.34 137.37
  L 215.93 137.44
  A 0.64 0.64 0.0 0 0 215.29 138.08
  Q 215.33 148.81 215.13 159.75
  Q 215.12 160.24 215.09 160.32
  Z
  M 299.54 137.97
  A 0.55 0.55 0.0 0 0 298.99 137.42
  L 286.07 137.42
  A 0.55 0.55 0.0 0 0 285.52 137.97
  L 285.52 206.95
  A 0.55 0.55 0.0 0 0 286.07 207.50
  L 298.99 207.50
  A 0.55 0.55 0.0 0 0 299.54 206.95
  L 299.54 137.97
  Z
  M 356.06 197.83
  C 359.72 205.25 367.63 208.90 375.51 209.65
  C 393.11 211.31 409.23 205.99 409.39 185.25
  Q 409.58 162.04 409.35 138.93
  A 0.74 0.73 0.0 0 0 408.62 138.21
  L 394.68 138.18
  A 0.69 0.68 0.0 0 0 393.99 138.86
  Q 393.99 161.14 393.82 183.50
  Q 393.77 188.91 393.22 190.23
  C 389.33 199.63 374.61 199.95 370.47 191.21
  Q 368.99 188.11 368.97 181.07
  Q 368.90 161.09 368.91 139.45
  Q 368.91 138.14 367.60 138.14
  L 354.41 138.16
  Q 353.36 138.16 353.36 139.21
  Q 353.19 164.28 353.44 187.50
  Q 353.50 192.64 356.06 197.83
  Z
  M 495.50 194.08
  L 499.26 207.04
  Q 499.39 207.49 499.86 207.49
  L 515.48 207.52
  A 0.49 0.49 0.0 0 0 515.94 206.87
  Q 504.68 175.17 493.39 143.31
  Q 492.62 141.14 492.39 139.25
  A 1.13 1.12 86.5 0 0 491.28 138.26
  L 475.19 138.13
  A 1.00 0.98 9.4 0 0 474.25 138.79
  L 450.11 206.40
  A 0.89 0.89 0.0 0 0 450.96 207.59
  L 465.50 207.46
  A 0.68 0.68 0.0 0 0 466.15 206.98
  L 470.38 193.94
  A 0.64 0.64 0.0 0 1 470.99 193.49
  L 494.69 193.48
  A 0.85 0.84 -8.3 0 1 495.50 194.08
  Z
  M 431.31 150.96
  A 0.68 0.68 0.0 0 1 431.99 151.64
  L 431.97 206.82
  A 0.68 0.68 0.0 0 0 432.65 207.50
  L 446.66 207.51
  A 0.68 0.68 0.0 0 0 447.34 206.83
  L 447.28 151.65
  A 0.68 0.68 0.0 0 1 447.96 150.97
  L 467.50 151.02
  A 0.68 0.68 0.0 0 0 468.18 150.34
  L 468.17 138.99
  A 0.68 0.68 0.0 0 0 467.49 138.31
  L 412.24 138.34
  A 0.68 0.68 0.0 0 0 411.56 139.00
  L 411.30 150.30
  A 0.68 0.68 0.0 0 0 411.98 151.00
  L 431.31 150.96
  Z
  M 247.28 187.11
  A 1.23 1.22 -3.5 0 1 248.50 185.74
  L 281.50 185.74
  A 0.56 0.55 1.1 0 0 282.06 185.21
  C 282.73 172.68 278.62 158.24 264.43 155.42
  C 253.38 153.22 240.93 156.38 236.03 166.55
  C 230.51 178.00 231.66 198.96 243.90 205.60
  C 257.78 213.14 276.38 209.06 281.30 192.49
  A 0.56 0.56 0.0 0 0 280.75 191.77
  L 267.46 192.03
  A 1.38 1.37 -87.1 0 0 266.12 193.25
  Q 265.93 194.94 264.10 195.88
  C 256.11 200.00 248.39 196.05 247.28 187.11
  Z
  M 335.35 204.24
  L 335.73 206.80
  A 0.83 0.82 -3.6 0 0 336.54 207.50
  L 348.46 207.54
  A 0.73 0.73 0.0 0 0 349.20 206.81
  Q 349.19 190.66 349.15 174.25
  C 349.14 168.69 347.68 162.70 343.38 159.07
  C 336.00 152.83 317.82 153.54 310.62 158.95
  Q 304.51 163.54 304.90 172.85
  Q 304.92 173.37 305.44 173.37
  L 316.81 173.28
  Q 318.11 173.27 318.27 171.98
  C 318.57 169.43 319.60 167.51 322.13 166.56
  C 326.62 164.87 337.00 165.24 334.14 173.23
  Q 333.96 173.72 333.52 173.99
  C 330.00 176.15 324.29 176.50 320.23 177.07
  C 308.40 178.74 301.76 184.14 303.04 197.02
  C 304.37 210.39 321.76 211.00 331.09 206.61
  C 332.44 205.97 333.51 204.92 334.76 204.00
  Q 335.26 203.64 335.35 204.24
  Z"
/>
<path fill="#71211a" d="
  M 282.40 42.44
  C 279.89 41.49 277.24 40.59 274.45 40.74
  Q 256.68 41.70 241.80 51.52
  Q 240.55 52.34 239.01 54.57
  C 235.08 60.26 254.16 70.10 259.76 73.51
  C 264.42 76.35 270.33 80.67 272.99 85.25
  C 280.80 98.67 265.39 114.32 254.33 120.25
  C 243.02 126.30 226.35 128.17 215.95 119.06
  C 208.95 112.93 210.04 105.59 215.43 98.93
  Q 222.72 89.95 233.99 87.14
  C 244.99 84.40 252.31 89.89 247.23 101.49
  Q 246.51 103.12 244.96 102.24
  C 236.20 97.29 225.36 100.78 217.80 106.27
  C 215.31 108.09 213.68 108.68 214.52 111.75
  C 216.22 118.00 227.90 119.67 233.30 119.27
  C 244.69 118.44 256.97 110.70 263.23 101.72
  C 269.39 92.89 263.43 88.15 256.44 82.19
  C 246.71 73.90 224.40 60.51 241.19 45.17
  C 250.80 36.41 266.31 27.55 279.25 30.45
  C 289.01 32.63 286.96 44.87 283.53 51.25
  C 280.49 56.90 269.06 69.89 262.00 65.21
  C 259.21 63.36 258.10 59.35 257.36 56.05
  A 0.86 0.86 0.0 0 1 258.16 55.00
  C 267.76 54.64 275.53 50.78 282.77 44.59
  A 1.27 1.27 0.0 0 0 282.40 42.44
  Z"
/>
<path fill="#3c3d3c" d="
  M 146.65 99.23
  C 139.48 104.19 131.98 108.01 123.28 109.43
  Q 119.97 109.97 118.79 106.73
  C 113.92 93.30 137.40 55.86 145.62 43.10
  A 0.55 0.55 0.0 0 0 145.06 42.26
  Q 122.03 46.64 112.53 67.79
  A 0.92 0.92 0.0 0 1 111.10 68.12
  C 105.49 63.52 101.64 56.88 107.82 50.57
  C 120.50 37.60 144.52 33.12 161.30 39.40
  A 1.41 1.41 0.0 0 1 161.92 41.58
  Q 145.00 63.54 131.05 87.95
  C 127.83 93.57 125.44 99.11 123.41 104.98
  A 0.55 0.55 0.0 0 0 124.07 105.69
  C 138.22 102.12 149.75 91.75 158.27 79.50
  Q 160.37 76.48 166.27 65.42
  Q 174.81 49.39 179.16 42.71
  C 183.85 35.50 191.85 36.71 198.48 39.52
  Q 199.04 39.77 198.59 40.19
  Q 193.24 45.14 188.85 51.32
  C 176.27 69.03 165.74 88.16 154.57 106.76
  Q 150.53 113.49 145.47 119.44
  Q 145.02 119.98 145.71 120.13
  C 153.00 121.77 160.42 123.80 167.99 120.65
  Q 168.47 120.45 168.85 120.09
  L 169.45 119.52
  Q 170.14 118.86 170.22 119.81
  C 170.87 127.50 167.43 134.06 158.51 131.45
  Q 149.45 128.80 141.26 124.01
  C 140.46 123.55 138.94 123.87 138.06 124.41
  Q 127.22 130.95 114.54 128.84
  Q 109.22 127.95 108.84 123.01
  C 108.17 114.45 119.09 112.76 125.26 113.69
  Q 131.89 114.68 137.92 117.33
  A 0.46 0.46 0.0 0 0 138.51 117.13
  L 147.63 100.09
  Q 148.94 97.64 146.65 99.23
  Z
  M 113.82 125.19
  C 117.52 129.24 130.71 123.84 134.48 121.24
  A 0.42 0.41 41.3 0 0 134.43 120.53
  Q 126.75 116.51 118.26 117.05
  C 114.18 117.31 110.26 121.30 113.82 125.19
  Z"
/>
<path fill="#71211a" d="
  M 77.79 87.52
  Q 84.55 87.21 91.26 86.39
  Q 93.43 86.12 95.19 85.29
  A 0.93 0.93 0.0 0 1 96.52 86.16
  C 96.43 88.83 96.44 92.00 93.02 92.61
  Q 83.21 94.38 73.33 94.14
  Q 72.60 94.12 72.20 94.73
  L 54.04 122.14
  Q 52.61 124.29 52.10 121.76
  L 51.62 119.38
  A 6.55 6.50 56.4 0 1 52.58 114.51
  L 65.53 95.06
  A 0.70 0.70 0.0 0 0 65.00 93.98
  L 53.67 93.15
  A 1.66 1.64 18.8 0 0 52.18 93.87
  Q 44.17 105.76 36.62 117.35
  Q 34.97 119.89 33.50 122.70
  A 0.72 0.72 0.0 0 1 32.45 122.97
  C 29.53 120.98 30.47 116.96 32.28 114.22
  C 36.85 107.29 41.01 99.93 46.20 93.44
  A 0.45 0.44 19.9 0 0 45.86 92.72
  L 33.19 92.45
  Q 30.55 92.39 32.11 90.27
  L 33.08 88.95
  A 4.93 4.92 20.1 0 1 37.42 86.94
  L 47.75 87.67
  Q 49.45 87.79 50.36 86.35
  L 57.88 74.40
  A 0.49 0.49 0.0 0 0 57.47 73.65
  L 42.11 73.23
  Q 39.81 73.17 40.51 70.98
  L 40.70 70.39
  Q 41.58 67.64 44.47 67.71
  L 60.80 68.08
  A 1.50 1.50 0.0 0 0 62.12 67.35
  C 66.31 60.26 71.82 51.96 74.07 44.24
  Q 74.87 41.50 77.22 43.12
  L 77.86 43.56
  Q 80.58 45.43 79.40 48.52
  C 76.76 55.44 72.79 61.41 69.22 67.73
  Q 68.90 68.29 69.55 68.29
  L 81.43 68.33
  A 1.47 1.46 -74.7 0 0 82.72 67.59
  C 87.19 59.69 92.04 51.87 95.25 43.24
  Q 95.72 41.98 96.93 42.57
  C 100.85 44.50 100.69 47.48 99.01 51.14
  Q 95.22 59.40 90.22 66.72
  A 0.67 0.67 0.0 0 0 90.77 67.77
  C 94.25 67.78 99.89 67.73 102.84 65.87
  A 1.12 1.12 0.0 0 1 104.55 66.78
  Q 104.65 69.44 103.85 71.99
  Q 103.69 72.53 103.15 72.70
  C 98.40 74.21 92.02 74.13 86.95 74.31
  A 2.58 2.57 -74.4 0 0 84.89 75.48
  L 77.46 86.96
  Q 77.07 87.56 77.79 87.52
  Z
  M 56.88 87.07
  A 0.73 0.73 0.0 0 0 57.51 88.19
  L 69.60 88.02
  A 0.73 0.73 0.0 0 0 70.21 87.67
  L 77.94 75.36
  A 0.73 0.73 0.0 0 0 77.33 74.24
  L 65.55 73.98
  A 0.73 0.73 0.0 0 0 64.92 74.32
  L 56.88 87.07
  Z"
/>
<path fill="#3c3d3c" d="
  M 205.62 97.25
  C 215.73 93.91 225.37 83.47 230.59 74.91
  A 0.61 0.61 0.0 0 1 231.51 74.77
  L 231.73 74.96
  Q 232.40 75.54 231.96 76.31
  Q 223.44 91.37 208.51 99.22
  C 206.99 100.02 203.13 100.73 202.15 102.16
  C 197.01 109.75 188.44 116.32 178.75 116.71
  C 175.42 116.84 172.97 111.87 172.00 109.37
  Q 170.88 106.54 170.80 102.47
  C 170.50 86.93 178.92 73.76 193.74 67.91
  A 6.23 6.22 -28.9 0 1 201.04 70.01
  L 202.47 71.96
  Q 205.31 75.82 200.55 76.39
  C 185.61 78.19 170.80 97.90 177.51 113.22
  Q 177.93 114.17 178.94 113.94
  C 185.90 112.40 190.65 107.44 193.89 101.47
  A 0.43 0.42 -59.6 0 0 193.75 100.91
  C 190.69 98.94 188.99 97.38 189.32 93.46
  C 190.03 85.18 197.02 78.29 205.17 76.74
  A 2.08 2.07 64.8 0 1 207.18 77.47
  C 211.26 82.52 207.45 91.55 205.19 96.78
  Q 204.88 97.50 205.62 97.25
  Z
  M 195.61 97.24
  L 198.35 86.25
  A 0.12 0.12 0.0 0 0 198.26 86.11
  L 198.24 86.10
  A 5.30 3.20 -76.0 0 0 193.86 90.47
  L 193.62 91.40
  A 5.30 3.20 -76.0 0 0 195.45 97.32
  L 195.47 97.32
  A 0.12 0.12 0.0 0 0 195.61 97.24
  Z"
/>
<path fill="#71211a" d="
  M 326.89 95.58
  Q 327.78 93.50 325.99 94.88
  Q 320.52 99.11 313.90 101.11
  Q 313.39 101.26 313.07 101.69
  C 307.31 109.50 300.23 115.50 290.51 116.75
  C 283.33 117.68 280.41 104.91 280.75 99.99
  Q 281.04 95.74 283.86 88.29
  Q 289.20 74.18 302.74 68.26
  C 307.56 66.16 312.62 68.48 313.45 73.90
  A 1.97 1.96 80.0 0 1 311.90 76.12
  C 309.42 76.63 306.81 76.94 304.56 78.10
  C 292.81 84.17 282.15 98.98 287.60 112.90
  A 1.57 1.57 0.0 0 0 289.32 113.87
  C 295.55 112.79 300.72 107.87 303.73 102.45
  A 1.69 1.69 0.0 0 0 303.07 100.15
  C 298.71 97.74 298.79 93.53 300.53 89.27
  Q 304.34 79.93 314.50 76.79
  Q 317.47 75.88 318.40 78.57
  C 320.28 84.07 318.36 91.57 315.71 96.13
  Q 314.52 98.18 316.67 97.18
  Q 323.16 94.19 328.27 89.67
  C 334.06 84.54 337.00 76.71 342.16 70.84
  A 6.22 6.20 -65.1 0 1 347.72 68.80
  L 351.93 69.43
  Q 355.26 69.93 353.00 72.43
  Q 339.70 87.11 330.30 104.06
  Q 328.22 107.81 327.56 110.94
  Q 327.11 113.07 329.07 112.11
  Q 337.75 107.84 344.01 100.73
  Q 346.47 97.95 349.50 92.11
  Q 354.97 81.60 361.92 72.07
  Q 364.62 68.36 369.19 68.84
  L 372.09 69.14
  Q 376.65 69.62 373.54 73.00
  Q 362.21 85.30 354.30 99.04
  C 350.98 104.80 349.14 110.21 346.92 117.87
  C 344.25 127.06 337.13 148.28 323.28 143.09
  C 313.27 139.34 305.17 118.37 325.02 121.40
  Q 327.65 121.80 325.41 123.23
  C 320.62 126.28 320.17 142.13 326.83 140.70
  C 333.84 139.19 341.05 112.28 342.81 106.87
  Q 343.31 105.32 342.23 106.54
  C 338.25 111.02 319.75 126.13 322.47 107.98
  C 323.09 103.85 325.24 99.47 326.89 95.58
  Z
  M 305.75 97.40
  L 308.84 86.28
  A 0.04 0.04 0.0 0 0 308.81 86.23
  L 308.75 86.21
  A 5.62 3.40 -74.5 0 0 303.97 90.72
  L 303.87 91.09
  A 5.62 3.40 -74.5 0 0 305.65 97.41
  L 305.71 97.43
  A 0.04 0.04 0.0 0 0 305.75 97.40
  Z"
/>
<path fill="#ffffff" d="
  M 56.88 87.07
  L 64.92 74.32
  A 0.73 0.73 0.0 0 1 65.55 73.98
  L 77.33 74.24
  A 0.73 0.73 0.0 0 1 77.94 75.36
  L 70.21 87.67
  A 0.73 0.73 0.0 0 1 69.60 88.02
  L 57.51 88.19
  A 0.73 0.73 0.0 0 1 56.88 87.07
  Z"
/>
<path fill="#ffffff" d="
  M 195.61 97.24
  A 0.12 0.12 0.0 0 1 195.47 97.32
  L 195.45 97.32
  A 5.30 3.20 -76.0 0 1 193.62 91.40
  L 193.86 90.47
  A 5.30 3.20 -76.0 0 1 198.24 86.10
  L 198.26 86.11
  A 0.12 0.12 0.0 0 1 198.35 86.25
  L 195.61 97.24
  Z"
/>
<path fill="#ffffff" d="
  M 305.75 97.40
  A 0.04 0.04 0.0 0 1 305.71 97.43
  L 305.65 97.41
  A 5.62 3.40 -74.5 0 1 303.87 91.09
  L 303.97 90.72
  A 5.62 3.40 -74.5 0 1 308.75 86.21
  L 308.81 86.23
  A 0.04 0.04 0.0 0 1 308.84 86.28
  L 305.75 97.40
  Z"
/>
<path fill="#ffffff" d="
  M 134.48 121.24
  C 130.71 123.84 117.52 129.24 113.82 125.19
  C 110.26 121.30 114.18 117.31 118.26 117.05
  Q 126.75 116.51 134.43 120.53
  A 0.42 0.41 41.3 0 1 134.48 121.24
  Z"
/>
<path fill="#3c3d3c" d="
  M 215.09 160.32
  Q 215.12 160.24 215.13 159.75
  Q 215.33 148.81 215.29 138.08
  A 0.64 0.64 0.0 0 1 215.93 137.44
  L 229.34 137.37
  A 0.22 0.21 -90.0 0 1 229.55 137.59
  L 229.64 206.92
  A 0.57 0.56 -90.0 0 1 229.08 207.49
  L 216.17 207.51
  Q 215.57 207.51 215.56 206.92
  L 215.49 204.50
  Q 215.44 202.85 214.27 204.01
  C 209.50 208.78 203.55 210.05 196.94 208.44
  C 180.66 204.46 177.73 186.14 180.88 171.81
  Q 184.35 156.02 199.28 154.86
  C 205.23 154.40 210.37 155.99 214.20 160.47
  Q 214.77 161.15 215.09 160.32
  Z
  M 214.13 172.42
  C 212.48 168.23 208.15 166.60 204.03 167.00
  C 187.20 168.66 192.73 203.34 208.85 196.51
  C 217.24 192.95 217.00 179.70 214.13 172.42
  Z"
/>
<rect fill="#3c3d3c" x="285.52" y="137.42" width="14.02" height="70.08" rx="0.55"/>
<path fill="#71211a" d="
  M 375.51 209.65
  C 367.63 208.90 359.72 205.25 356.06 197.83
  Q 353.50 192.64 353.44 187.50
  Q 353.19 164.28 353.36 139.21
  Q 353.36 138.16 354.41 138.16
  L 367.60 138.14
  Q 368.91 138.14 368.91 139.45
  Q 368.90 161.09 368.97 181.07
  Q 368.99 188.11 370.47 191.21
  C 374.61 199.95 389.33 199.63 393.22 190.23
  Q 393.77 188.91 393.82 183.50
  Q 393.99 161.14 393.99 138.86
  A 0.69 0.68 0.0 0 1 394.68 138.18
  L 408.62 138.21
  A 0.74 0.73 0.0 0 1 409.35 138.93
  Q 409.58 162.04 409.39 185.25
  C 409.23 205.99 393.11 211.31 375.51 209.65
  Z"
/>
<path fill="#71211a" d="
  M 494.69 193.48
  L 470.99 193.49
  A 0.64 0.64 0.0 0 0 470.38 193.94
  L 466.15 206.98
  A 0.68 0.68 0.0 0 1 465.50 207.46
  L 450.96 207.59
  A 0.89 0.89 0.0 0 1 450.11 206.40
  L 474.25 138.79
  A 1.00 0.98 9.4 0 1 475.19 138.13
  L 491.28 138.26
  A 1.13 1.12 86.5 0 1 492.39 139.25
  Q 492.62 141.14 493.39 143.31
  Q 504.68 175.17 515.94 206.87
  A 0.49 0.49 0.0 0 1 515.48 207.52
  L 499.86 207.49
  Q 499.39 207.49 499.26 207.04
  L 495.50 194.08
  A 0.85 0.84 -8.3 0 0 494.69 193.48
  Z
  M 474.79 180.49
  A 0.40 0.40 0.0 0 0 475.17 181.01
  L 490.31 181.06
  A 0.40 0.40 0.0 0 0 490.69 180.54
  L 483.21 156.46
  A 0.40 0.40 0.0 0 0 482.44 156.46
  L 474.79 180.49
  Z"
/>
<path fill="#71211a" d="
  M 431.31 150.96
  L 411.98 151.00
  A 0.68 0.68 0.0 0 1 411.30 150.30
  L 411.56 139.00
  A 0.68 0.68 0.0 0 1 412.24 138.34
  L 467.49 138.31
  A 0.68 0.68 0.0 0 1 468.17 138.99
  L 468.18 150.34
  A 0.68 0.68 0.0 0 1 467.50 151.02
  L 447.96 150.97
  A 0.68 0.68 0.0 0 0 447.28 151.65
  L 447.34 206.83
  A 0.68 0.68 0.0 0 1 446.66 207.51
  L 432.65 207.50
  A 0.68 0.68 0.0 0 1 431.97 206.82
  L 431.99 151.64
  A 0.68 0.68 0.0 0 0 431.31 150.96
  Z"
/>
<path fill="#3c3d3c" d="
  M 247.28 187.11
  C 248.39 196.05 256.11 200.00 264.10 195.88
  Q 265.93 194.94 266.12 193.25
  A 1.38 1.37 -87.1 0 1 267.46 192.03
  L 280.75 191.77
  A 0.56 0.56 0.0 0 1 281.30 192.49
  C 276.38 209.06 257.78 213.14 243.90 205.60
  C 231.66 198.96 230.51 178.00 236.03 166.55
  C 240.93 156.38 253.38 153.22 264.43 155.42
  C 278.62 158.24 282.73 172.68 282.06 185.21
  A 0.56 0.55 1.1 0 1 281.50 185.74
  L 248.50 185.74
  A 1.23 1.22 -3.5 0 0 247.28 187.11
  Z
  M 248.26 176.72
  L 266.96 176.66
  A 0.45 0.45 0.0 0 0 267.41 176.21
  L 267.41 175.87
  A 9.77 9.75 89.8 0 0 257.62 166.13
  L 257.52 166.13
  A 9.77 9.75 89.8 0 0 247.81 175.93
  L 247.81 176.27
  A 0.45 0.45 0.0 0 0 248.26 176.72
  Z"
/>
<path fill="#3c3d3c" d="
  M 334.76 204.00
  C 333.51 204.92 332.44 205.97 331.09 206.61
  C 321.76 211.00 304.37 210.39 303.04 197.02
  C 301.76 184.14 308.40 178.74 320.23 177.07
  C 324.29 176.50 330.00 176.15 333.52 173.99
  Q 333.96 173.72 334.14 173.23
  C 337.00 165.24 326.62 164.87 322.13 166.56
  C 319.60 167.51 318.57 169.43 318.27 171.98
  Q 318.11 173.27 316.81 173.28
  L 305.44 173.37
  Q 304.92 173.37 304.90 172.85
  Q 304.51 163.54 310.62 158.95
  C 317.82 153.54 336.00 152.83 343.38 159.07
  C 347.68 162.70 349.14 168.69 349.15 174.25
  Q 349.19 190.66 349.20 206.81
  A 0.73 0.73 0.0 0 1 348.46 207.54
  L 336.54 207.50
  A 0.83 0.82 -3.6 0 1 335.73 206.80
  L 335.35 204.24
  Q 335.26 203.64 334.76 204.00
  Z
  M 320.68 187.66
  C 315.14 189.90 315.47 198.21 322.49 198.46
  C 332.04 198.80 334.69 192.68 335.13 184.52
  Q 335.16 184.09 334.73 184.15
  Q 326.34 185.38 320.68 187.66
  Z"
/>
<path fill="#ffffff" d="
  M 474.79 180.49
  L 482.44 156.46
  A 0.40 0.40 0.0 0 1 483.21 156.46
  L 490.69 180.54
  A 0.40 0.40 0.0 0 1 490.31 181.06
  L 475.17 181.01
  A 0.40 0.40 0.0 0 1 474.79 180.49
  Z"
/>
<path fill="#ffffff" d="
  M 248.26 176.72
  A 0.45 0.45 0.0 0 1 247.81 176.27
  L 247.81 175.93
  A 9.77 9.75 89.8 0 1 257.52 166.13
  L 257.62 166.13
  A 9.77 9.75 89.8 0 1 267.41 175.87
  L 267.41 176.21
  A 0.45 0.45 0.0 0 1 266.96 176.66
  L 248.26 176.72
  Z"
/>
<path fill="#ffffff" d="
  M 214.13 172.42
  C 217.00 179.70 217.24 192.95 208.85 196.51
  C 192.73 203.34 187.20 168.66 204.03 167.00
  C 208.15 166.60 212.48 168.23 214.13 172.42
  Z"
/>
<path fill="#ffffff" d="
  M 320.68 187.66
  Q 326.34 185.38 334.73 184.15
  Q 335.16 184.09 335.13 184.52
  C 334.69 192.68 332.04 198.80 322.49 198.46
  C 315.47 198.21 315.14 189.90 320.68 187.66
  Z"
/>
</svg>
